<svg width="20" height="20" viewBox="0 0 20 20" fill="none" xmlns="http://www.w3.org/2000/svg">
  <path d="M10 3C6.13 3 2.8 5.13 1.46 8.1C1.15 8.79 1.15 9.21 1.46 9.9C2.8 12.87 6.13 15 10 15C13.87 15 17.2 12.87 18.54 9.9C18.85 9.21 18.85 8.79 18.54 8.1C17.2 5.13 13.87 3 10 3ZM10 13C7.79 13 6 11.21 6 9C6 6.79 7.79 5 10 5C12.21 5 14 6.79 14 9C14 11.21 12.21 13 10 13Z" fill="#0ea5e9"/>
  <path d="M10 7C8.9 7 8 7.9 8 9C8 10.1 8.9 11 10 11C11.1 11 12 10.1 12 9C12 7.9 11.1 7 10 7Z" fill="#0ea5e9"/>
</svg>
