<svg width="20" height="20" viewBox="0 0 20 20" fill="none" xmlns="http://www.w3.org/2000/svg">
<path d="M9.75 3.75V15.75M6.75 12.932L7.629 13.591C8.8 14.47 10.699 14.47 11.871 13.591C13.043 12.712 13.043 11.288 11.871 10.409C11.286 9.969 10.518 9.75 9.75 9.75C9.025 9.75 8.3 9.53 7.747 9.091C6.641 8.212 6.641 6.788 7.747 5.909C8.853 5.03 10.647 5.03 11.753 5.909L12.168 6.239M18.75 9.75C18.75 10.9319 18.5172 12.1022 18.0649 13.1942C17.6126 14.2861 16.9497 15.2782 16.114 16.114C15.2782 16.9497 14.2861 17.6126 13.1942 18.0649C12.1022 18.5172 10.9319 18.75 9.75 18.75C8.5681 18.75 7.39778 18.5172 6.30585 18.0649C5.21392 17.6126 4.22177 16.9497 3.38604 16.114C2.55031 15.2782 1.88738 14.2861 1.43508 13.1942C0.982792 12.1022 0.75 10.9319 0.75 9.75C0.75 7.36305 1.69821 5.07387 3.38604 3.38604C5.07387 1.69821 7.36305 0.75 9.75 0.75C12.1369 0.75 14.4261 1.69821 16.114 3.38604C17.8018 5.07387 18.75 7.36305 18.75 9.75Z" stroke="#5D6679" stroke-width="1.5" stroke-linecap="round" stroke-linejoin="round"/>
</svg>
