<svg width="18" height="21" viewBox="0 0 18 21" fill="none" xmlns="http://www.w3.org/2000/svg">
<path d="M8.35 2.336C8.285 2.546 8.25 2.769 8.25 3C8.25 3.414 8.586 3.75 9 3.75H13.5C13.6989 3.75 13.8897 3.67098 14.0303 3.53033C14.171 3.38968 14.25 3.19891 14.25 3C14.2501 2.77491 14.2164 2.55109 14.15 2.336M8.35 2.336C8.49203 1.8767 8.77738 1.47493 9.16426 1.18954C9.55115 0.904145 10.0192 0.750113 10.5 0.75H12C13.012 0.75 13.867 1.418 14.15 2.336M8.35 2.336C7.974 2.359 7.6 2.386 7.226 2.416C6.095 2.51 5.25 3.473 5.25 4.608V6.75M14.15 2.336C14.526 2.359 14.9 2.386 15.274 2.416C16.405 2.51 17.25 3.473 17.25 4.608V15C17.25 15.5967 17.0129 16.169 16.591 16.591C16.169 17.0129 15.5967 17.25 15 17.25H12.75M5.25 6.75H1.875C1.254 6.75 0.75 7.254 0.75 7.875V19.125C0.75 19.746 1.254 20.25 1.875 20.25H11.625C12.246 20.25 12.75 19.746 12.75 19.125V17.25M5.25 6.75H11.625C12.246 6.75 12.75 7.254 12.75 7.875V17.25M4.5 14.25L6 15.75L9 12" stroke="#5D6679" stroke-width="1.5" stroke-linecap="round" stroke-linejoin="round"/>
</svg>
